<?xml version="1.0" encoding="UTF-8"?>
<svg version="1.1" xmlns="http://www.w3.org/2000/svg" width="800" height="800">
<path d="M0 0 C264 0 528 0 800 0 C800 264 800 528 800 800 C536 800 272 800 0 800 C0 536 0 272 0 0 Z " fill="#FEFEFE" transform="translate(0,0)"/>
<path d="M0 0 C6.07619991 3.89499994 12.27482257 9.73807575 14.16015625 16.90234375 C14.28515625 19.71484375 14.28515625 19.71484375 14.16015625 21.90234375 C15.13339844 22.00160156 16.10664063 22.10085937 17.109375 22.203125 C21.65062387 22.85709223 25.72501045 24.40113457 29.97265625 26.08984375 C30.76800781 26.40445557 31.56335938 26.71906738 32.3828125 27.04321289 C49.90667388 34.14259587 64.92337719 46.70111565 75.53515625 62.33984375 C75.92767578 62.91162354 76.32019531 63.48340332 76.72460938 64.07250977 C83.73127224 74.84958086 87.44255401 87.83220683 91.84765625 99.83984375 C92.15418121 100.67281982 92.46070618 101.5057959 92.77651978 102.36401367 C97.17791859 114.33086506 101.43020874 126.33789654 105.54174805 138.40771484 C108.46714512 146.97011554 111.52888046 155.47627062 114.66015625 163.96484375 C115.33884766 165.80731689 115.33884766 165.80731689 116.03125 167.68701172 C116.48242188 168.91178223 116.93359375 170.13655273 117.3984375 171.3984375 C120.23556635 179.10066074 123.05691059 186.80818536 125.84765625 194.52734375 C126.28207031 195.71336182 126.71648437 196.89937988 127.1640625 198.12133789 C127.55851562 199.21696045 127.95296875 200.31258301 128.359375 201.44140625 C128.88277466 202.88314209 128.88277466 202.88314209 129.41674805 204.35400391 C130.16015625 206.90234375 130.16015625 206.90234375 130.16015625 210.90234375 C131.14757812 210.87914062 132.135 210.8559375 133.15234375 210.83203125 C134.43367188 210.81398438 135.715 210.7959375 137.03515625 210.77734375 C138.31132813 210.75414062 139.5875 210.7309375 140.90234375 210.70703125 C144.16015625 210.90234375 144.16015625 210.90234375 146.16015625 212.90234375 C145.60460069 217.45789931 145.60460069 217.45789931 144.16015625 218.90234375 C142.14051426 218.97478428 140.11848501 218.98611563 138.09765625 218.96484375 C136.99292969 218.95582031 135.88820313 218.94679688 134.75 218.9375 C133.46802734 218.92009766 133.46802734 218.92009766 132.16015625 218.90234375 C132.07765625 220.16046875 131.99515625 221.41859375 131.91015625 222.71484375 C130.3914214 235.82932439 123.4208484 247.72501556 113.9453125 256.76171875 C100.25515948 267.28374379 85.10183874 270.41575427 68.16015625 268.90234375 C55.33614942 266.44918322 43.32675354 259.0282974 35.16015625 248.90234375 C28.939471 239.71076594 24.90678633 231.0245574 24.16015625 219.90234375 C23.30550781 219.84175781 22.45085937 219.78117188 21.5703125 219.71875 C20.46558594 219.63496094 19.36085938 219.55117188 18.22265625 219.46484375 C16.56943359 219.34302734 16.56943359 219.34302734 14.8828125 219.21875 C12.16015625 218.90234375 12.16015625 218.90234375 11.16015625 217.90234375 C11.03515625 214.90234375 11.03515625 214.90234375 11.16015625 211.90234375 C13.03840516 210.02409484 16.19950901 210.51131978 18.72265625 210.33984375 C19.92019531 210.25605469 21.11773437 210.17226563 22.3515625 210.0859375 C23.27839844 210.02535156 24.20523438 209.96476563 25.16015625 209.90234375 C27.45459489 203.57559409 29.74726175 197.24820425 32.03881836 190.92041016 C32.81512351 188.77736608 33.59180312 186.63445761 34.36889648 184.49169922 C38.16782458 174.01579279 41.95663367 163.53825657 45.61328125 153.01171875 C50.28059306 139.58845167 55.22337929 126.26469879 60.12524414 112.92578125 C61.37141785 109.53308708 62.61546611 106.13961883 63.859375 102.74609375 C64.23237228 101.73333374 64.60536957 100.72057373 64.9896698 99.67712402 C66.05976829 96.75680736 67.11146533 93.83040744 68.16015625 90.90234375 C68.55345123 89.83669189 68.94674622 88.77104004 69.35195923 87.6730957 C69.91600967 86.08984497 69.91600967 86.08984497 70.49145508 84.47460938 C70.83549881 83.52573853 71.17954254 82.57686768 71.53401184 81.59924316 C72.44843019 77.66070396 71.72097529 75.03487151 69.953125 71.46484375 C57.75677317 51.99816054 39.52033986 37.86505938 17.16015625 31.90234375 C15.84015625 31.90234375 14.52015625 31.90234375 13.16015625 31.90234375 C12.74765625 32.78921875 12.33515625 33.67609375 11.91015625 34.58984375 C7.59613749 42.75566498 1.77755356 46.02987798 -6.83984375 48.90234375 C-14.93973588 49.89449921 -20.84219365 47.4463029 -27.58984375 43.15234375 C-30.62401103 40.11817647 -32.89461305 36.72658454 -34.83984375 32.90234375 C-34.83984375 32.24234375 -34.83984375 31.58234375 -34.83984375 30.90234375 C-60.02525282 37.78613493 -77.22561503 50.54985104 -92.50390625 71.9453125 C-95.17378336 77.85495276 -92.3161556 83.95316779 -90.17578125 89.734375 C-89.91010345 90.46896439 -89.64442566 91.20355377 -89.37069702 91.96040344 C-88.81172023 93.50441729 -88.24992247 95.04741255 -87.6854248 96.5894165 C-86.86883956 98.8230312 -86.06186584 101.05983694 -85.25878906 103.29833984 C-83.66808838 107.73148433 -82.06696611 112.1608167 -80.46484375 116.58984375 C-79.89033459 118.17991492 -79.31587228 119.77000303 -78.74145508 121.36010742 C-76.00108785 128.94332617 -73.25157306 136.5230483 -70.48413086 144.09643555 C-67.20354792 153.07430032 -64.03604434 162.08509488 -60.92211914 171.12207031 C-58.02676381 179.47265972 -54.9444025 187.74817341 -51.80883789 196.01123047 C-50.06234112 200.61595223 -48.34308365 205.21065291 -46.83984375 209.90234375 C-45.91300781 209.96292969 -44.98617187 210.02351562 -44.03125 210.0859375 C-42.83371094 210.16972656 -41.63617188 210.25351562 -40.40234375 210.33984375 C-38.60990234 210.46166016 -38.60990234 210.46166016 -36.78125 210.5859375 C-33.83984375 210.90234375 -33.83984375 210.90234375 -32.83984375 211.90234375 C-32.71484375 214.90234375 -32.71484375 214.90234375 -32.83984375 217.90234375 C-34.65100331 219.71350331 -37.45262602 219.28433823 -39.90234375 219.46484375 C-41.00707031 219.54863281 -42.11179687 219.63242187 -43.25 219.71875 C-44.10464844 219.77933594 -44.95929688 219.83992187 -45.83984375 219.90234375 C-45.98679687 220.77375 -46.13375 221.64515625 -46.28515625 222.54296875 C-49.20964034 238.07298769 -55.93849849 250.55575736 -68.76171875 260.0703125 C-82.33423553 268.49029976 -97.55342335 271.56336902 -113.1953125 268.01953125 C-126.97308431 264.35507676 -138.43137882 256.19021834 -146.08984375 244.08984375 C-150.63469247 236.0156166 -153.23395038 228.14221771 -153.83984375 218.90234375 C-154.68289063 218.92554688 -155.5259375 218.94875 -156.39453125 218.97265625 C-157.49023438 218.99070312 -158.5859375 219.00875 -159.71484375 219.02734375 C-160.80539063 219.05054688 -161.8959375 219.07375 -163.01953125 219.09765625 C-165.83984375 218.90234375 -165.83984375 218.90234375 -167.83984375 216.90234375 C-167.28428819 212.34678819 -167.28428819 212.34678819 -165.83984375 210.90234375 C-163.65691601 210.66752682 -161.46781201 210.48871052 -159.27734375 210.33984375 C-158.07980469 210.25605469 -156.88226563 210.17226563 -155.6484375 210.0859375 C-154.72160156 210.02535156 -153.79476563 209.96476563 -152.83984375 209.90234375 C-144.02822605 185.70741249 -144.02822605 185.70741249 -135.52734375 161.40234375 C-129.84798077 144.8198476 -123.78251023 128.37503993 -117.75770569 111.91574097 C-115.68813125 106.25297977 -113.65243119 100.57942098 -111.64453125 94.89453125 C-105.12808087 76.50077452 -98.67931219 61.86686763 -84.83984375 47.90234375 C-83.89625 46.88527344 -83.89625 46.88527344 -82.93359375 45.84765625 C-71.96978247 34.21153579 -55.3248545 25.65030814 -39.83984375 21.90234375 C-38.51984375 21.90234375 -37.19984375 21.90234375 -35.83984375 21.90234375 C-35.79859375 20.74734375 -35.75734375 19.59234375 -35.71484375 18.40234375 C-34.88773099 11.82039013 -30.58174469 7.25027816 -25.71484375 3.02734375 C-18.49377712 -2.30996637 -8.47475446 -3.27566163 0 0 Z " fill="#414046" transform="translate(410.83984375,177.09765625)"/>
<path d="M0 0 C1.359375 2.01171875 1.359375 2.01171875 2.75 4.6875 C6.17635726 10.68362521 9.6798963 13.48430048 15.875 16.3125 C24.02903326 18.10638732 30.63390447 16.98620581 38 13 C42.34919387 9.29855841 45.59701962 5.17565005 48 0 C67.26601358 1.34414048 85.3164242 14.96212992 97.5859375 29.00390625 C100.11111215 32.13790132 102.51266993 35.28081658 104.75 38.625 C105.76320313 40.12933594 105.76320313 40.12933594 106.796875 41.6640625 C109.47203533 49.08155251 104.76910002 57.89727273 102.18359375 64.97265625 C101.8082399 66.0128038 101.43288605 67.05295135 101.04615784 68.12461853 C99.84841145 71.43913208 98.64293035 74.7507744 97.4375 78.0625 C96.65512549 80.22704246 95.87322083 82.39175482 95.09179688 84.55664062 C91.20613573 95.30002072 87.25637804 106.01689062 83.2265625 116.70703125 C79.98742875 125.30253781 76.87795833 133.92211439 73.9375 142.625 C70.84004802 151.69231955 67.70167409 160.74120824 64.4375 169.75 C64.10290771 170.67893066 63.76831543 171.60786133 63.42358398 172.56494141 C63.11751221 173.40460449 62.81144043 174.24426758 62.49609375 175.109375 C62.22982178 175.84124023 61.9635498 176.57310547 61.68920898 177.32714844 C61 179 61 179 60 180 C57.81707226 180.23481693 55.62796826 180.41363323 53.4375 180.5625 C52.23996094 180.64628906 51.04242188 180.73007812 49.80859375 180.81640625 C48.88175781 180.87699219 47.95492187 180.93757812 47 181 C47 182.98 47 184.96 47 187 C47.85464844 187.06058594 48.70929688 187.12117187 49.58984375 187.18359375 C50.69457031 187.26738281 51.79929687 187.35117187 52.9375 187.4375 C54.59072266 187.55931641 54.59072266 187.55931641 56.27734375 187.68359375 C59 188 59 188 60 189 C60.061875 190.216875 60.12375 191.43375 60.1875 192.6875 C61.18166247 202.56600328 66.49757461 211.90819795 72 220 C65.39025136 219.70623339 60.82534565 218.82534565 56 214 C55.91273777 212.21928754 55.89300959 210.4351686 55.90234375 208.65234375 C55.90717773 207.03295898 55.90717773 207.03295898 55.91210938 205.38085938 C55.92467773 203.67639648 55.92467773 203.67639648 55.9375 201.9375 C55.94201172 200.79732422 55.94652344 199.65714844 55.95117188 198.48242188 C55.96300253 195.65489649 55.9794859 192.8274736 56 190 C56.66 189.67 57.32 189.34 58 189 C56.35 189 54.7 189 53 189 C52.67 190.65 52.34 192.3 52 194 C51.01 194 50.02 194 49 194 C47.58835863 194.45345268 46.19223489 194.95715349 44.8125 195.5 C44.09707031 195.7784375 43.38164062 196.056875 42.64453125 196.34375 C42.10183594 196.5603125 41.55914062 196.776875 41 197 C42.65 197 44.3 197 46 197 C45.67 197.66 45.34 198.32 45 199 C46.485 199.99 46.485 199.99 48 201 C46.68 201.33 45.36 201.66 44 202 C43.89042969 202.80824219 43.78085937 203.61648438 43.66796875 204.44921875 C43.43013672 206.05216797 43.43013672 206.05216797 43.1875 207.6875 C43.03667969 208.74324219 42.88585937 209.79898438 42.73046875 210.88671875 C41.96845044 214.13446523 40.94183606 216.30192125 39 219 C36.9375 219.875 36.9375 219.875 35 220 C34.34 219.67 33.68 219.34 33 219 C31.68 219 30.36 219 29 219 C29.05220703 220.77117187 29.05220703 220.77117187 29.10546875 222.578125 C29.13361232 224.13540242 29.16091187 225.69269525 29.1875 227.25 C29.21263672 228.02730469 29.23777344 228.80460938 29.26367188 229.60546875 C29.33834499 235.42997175 29.33834499 235.42997175 27.48828125 238.546875 C26.99714844 239.02640625 26.50601563 239.5059375 26 240 C23.625 239.6875 23.625 239.6875 21 239 C18.50881047 235.2632157 18.7934774 233.25548181 18.875 228.8125 C18.89304687 227.54019531 18.91109375 226.26789063 18.9296875 224.95703125 C18.95289063 223.98121094 18.97609375 223.00539063 19 222 C17.7934375 221.7834375 17.7934375 221.7834375 16.5625 221.5625 C14 221 14 221 13 220 C12.84417697 218.65984779 12.74955858 217.31241097 12.68359375 215.96484375 C12.64169922 215.15595703 12.59980469 214.34707031 12.55664062 213.51367188 C12.51732422 212.66353516 12.47800781 211.81339844 12.4375 210.9375 C12.39431641 210.08349609 12.35113281 209.22949219 12.30664062 208.34960938 C12.20023298 206.23327963 12.09958269 204.11666187 12 202 C10.68 202 9.36 202 8 202 C8.05220703 203.78857422 8.05220703 203.78857422 8.10546875 205.61328125 C8.13360753 207.17967342 8.1609076 208.74608081 8.1875 210.3125 C8.21263672 211.09818359 8.23777344 211.88386719 8.26367188 212.69335938 C8.27333984 213.45068359 8.28300781 214.20800781 8.29296875 214.98828125 C8.3086792 215.68477783 8.32438965 216.38127441 8.34057617 217.09887695 C7.90238443 219.54489783 6.86562642 220.42702086 5 222 C2.03 221.01 2.03 221.01 -1 220 C-1 214.39 -1 208.78 -1 203 C-0.34 203 0.32 203 1 203 C0.67 202.01 0.34 201.02 0 200 C-0.66 199.67 -1.32 199.34 -2 199 C-2 199.66 -2 200.32 -2 201 C-2.99 201.33 -3.98 201.66 -5 202 C-5 201.01 -5 200.02 -5 199 C-6.6068338 200.14510759 -6.6068338 200.14510759 -8 202 C-8.36270484 204.74243563 -8.36270484 204.74243563 -8.1875 207.6875 C-8.16042969 208.68136719 -8.13335937 209.67523438 -8.10546875 210.69921875 C-8.07066406 211.45847656 -8.03585937 212.21773437 -8 213 C-7.34 212.67 -6.68 212.34 -6 212 C-6 213.65 -6 215.3 -6 217 C-8.97 217.99 -8.97 217.99 -12 219 C-13 218 -13 218 -13.09765625 215.49609375 C-13.08605469 214.48675781 -13.07445312 213.47742188 -13.0625 212.4375 C-13.05347656 211.42558594 -13.04445313 210.41367187 -13.03515625 209.37109375 C-13.02355469 208.58863281 -13.01195312 207.80617188 -13 207 C-13.99 206.67 -14.98 206.34 -16 206 C-15.79503906 205.35933594 -15.59007812 204.71867188 -15.37890625 204.05859375 C-13.51670522 198.08109266 -13.51670522 198.08109266 -12.375 191.9375 C-12 189 -12 189 -11 188 C-8.98405418 187.76572222 -6.961526 187.58663876 -4.9375 187.4375 C-3.83277344 187.35371094 -2.72804688 187.26992188 -1.58984375 187.18359375 C-0.73519531 187.12300781 0.11945313 187.06242188 1 187 C1 185.02 1 183.04 1 181 C-3.29 180.67 -7.58 180.34 -12 180 C-15.60932607 171.52676929 -18.87801206 162.99796576 -21.9375 154.3125 C-22.34162109 153.17361328 -22.74574219 152.03472656 -23.16210938 150.86132812 C-24.92603418 145.88622681 -26.68054153 140.90782324 -28.43310547 135.92871094 C-31.9958028 125.81182525 -35.6051876 115.71258373 -39.25 105.625 C-39.5280246 104.85495636 -39.80604919 104.08491272 -40.09249878 103.29153442 C-44.62497025 90.742249 -49.22295466 78.21888026 -53.87890625 65.71484375 C-54.22969238 64.76593262 -54.58047852 63.81702148 -54.94189453 62.83935547 C-55.66992078 60.88574559 -56.41126442 58.93706354 -57.16357422 56.99267578 C-57.71489014 55.54417236 -57.71489014 55.54417236 -58.27734375 54.06640625 C-58.60855225 53.21119385 -58.93976074 52.35598145 -59.28100586 51.47485352 C-60.05497441 48.8107723 -60.24563521 46.7594159 -60 44 C-48.22259317 22.7561196 -28.82634162 7.2931732 -5.609375 0.59375 C-3 0 -3 0 0 0 Z " fill="#FEFDFE" transform="translate(376,208)"/>
<path d="M0 0 C2.29079923 1.00580404 4.45964856 2.09656431 6.625 3.34765625 C3.89741776 6.1813458 1.07109394 8.6010151 -2.0625 10.97265625 C-10.78015633 17.91093779 -19.74168904 27.09205275 -24.375 37.34765625 C-23.9646184 42.5928461 -22.52553897 47.27840137 -20.7109375 52.1796875 C-20.4452597 52.91427689 -20.17958191 53.64886627 -19.90585327 54.40571594 C-19.34687648 55.94972979 -18.78507872 57.49272505 -18.22058105 59.034729 C-17.40399581 61.2683437 -16.59702209 63.50514944 -15.79394531 65.74365234 C-14.20324463 70.17679683 -12.60212236 74.6061292 -11 79.03515625 C-10.42549084 80.62522742 -9.85102853 82.21531553 -9.27661133 83.80541992 C-6.5362441 91.38863867 -3.78672931 98.9683608 -1.01928711 106.54174805 C2.26129583 115.51961282 5.42879941 124.53040738 8.54272461 133.56738281 C11.43807994 141.91797222 14.52044125 150.19348591 17.65600586 158.45654297 C19.40250263 163.06126473 21.1217601 167.65596541 22.625 172.34765625 C23.55183594 172.40824219 24.47867188 172.46882812 25.43359375 172.53125 C26.63113281 172.61503906 27.82867187 172.69882812 29.0625 172.78515625 C30.85494141 172.90697266 30.85494141 172.90697266 32.68359375 173.03125 C35.625 173.34765625 35.625 173.34765625 36.625 174.34765625 C36.75 177.34765625 36.75 177.34765625 36.625 180.34765625 C34.81384044 182.15881581 32.01221773 181.72965073 29.5625 181.91015625 C28.45777344 181.99394531 27.35304688 182.07773437 26.21484375 182.1640625 C25.36019531 182.22464844 24.50554687 182.28523437 23.625 182.34765625 C23.47804688 183.2190625 23.33109375 184.09046875 23.1796875 184.98828125 C20.25520341 200.51830019 13.52634526 213.00106986 0.703125 222.515625 C-12.86939178 230.93561226 -28.0885796 234.00868152 -43.73046875 230.46484375 C-57.50824056 226.80038926 -68.96653507 218.63553084 -76.625 206.53515625 C-81.16984872 198.4609291 -83.76910663 190.58753021 -84.375 181.34765625 C-85.21804688 181.37085938 -86.06109375 181.3940625 -86.9296875 181.41796875 C-88.02539062 181.43601562 -89.12109375 181.4540625 -90.25 181.47265625 C-91.34054688 181.49585938 -92.43109375 181.5190625 -93.5546875 181.54296875 C-96.375 181.34765625 -96.375 181.34765625 -98.375 179.34765625 C-97.81944444 174.79210069 -97.81944444 174.79210069 -96.375 173.34765625 C-94.19207226 173.11283932 -92.00296826 172.93402302 -89.8125 172.78515625 C-88.61496094 172.70136719 -87.41742188 172.61757813 -86.18359375 172.53125 C-85.25675781 172.47066406 -84.32992188 172.41007813 -83.375 172.34765625 C-74.5633823 148.15272499 -74.5633823 148.15272499 -66.0625 123.84765625 C-60.38313702 107.2651601 -54.31766648 90.82035243 -48.29286194 74.36105347 C-46.2232875 68.69829227 -44.18758744 63.02473348 -42.1796875 57.33984375 C-35.66587636 38.95353671 -29.22236303 24.2986672 -15.375 10.34765625 C-14.69953125 9.63480469 -14.0240625 8.92195312 -13.328125 8.1875 C-11.72266033 6.51454898 -10.07782611 4.92049564 -8.375 3.34765625 C-7.42625 2.46078125 -6.4775 1.57390625 -5.5 0.66015625 C-2.375 -0.65234375 -2.375 -0.65234375 0 0 Z " fill="#414046" transform="translate(341.375,214.65234375)"/>
<path d="M0 0 C2.31 0.33 4.62 0.66 7 1 C7 22.12 7 43.24 7 65 C13.93 65.495 13.93 65.495 21 66 C24.53112667 66.61833043 27.91100611 67.26842655 31.375 68.125 C32.26566162 68.34236816 33.15632324 68.55973633 34.07397461 68.78369141 C42.51909779 70.95376066 50.23012557 74.07676658 58 78 C59.04285156 78.52207031 60.08570313 79.04414062 61.16015625 79.58203125 C81.20587214 90.43682602 97.85413182 109.2987579 105 131 C105.87656754 131.01213028 105.87656754 131.01213028 106.77084351 131.02450562 C112.83768975 131.11037564 118.90420259 131.20987075 124.97070312 131.31738281 C127.23659682 131.35573271 129.50255265 131.39057483 131.76855469 131.421875 C135.02040867 131.46739527 138.2718326 131.52541076 141.5234375 131.5859375 C143.05005508 131.60326431 143.05005508 131.60326431 144.60751343 131.62094116 C146.01874985 131.6507457 146.01874985 131.6507457 147.45849609 131.68115234 C148.28900482 131.69447601 149.11951355 131.70779968 149.97518921 131.7215271 C152 132 152 132 154 134 C154.25 136.5 154.25 136.5 154 139 C151.46674616 141.53325384 150.61448437 141.25042108 147.10551453 141.25168228 C146.06471395 141.25689778 145.02391336 141.26211327 143.95157337 141.26748681 C142.7992607 141.26302537 141.64694803 141.25856392 140.4597168 141.25396729 C139.24252048 141.25708727 138.02532415 141.26020725 136.7712431 141.26342177 C133.38187628 141.27004157 129.99272958 141.26762833 126.60337591 141.26144934 C122.9523424 141.2569405 119.3013287 141.26390078 115.65029907 141.26940918 C108.49368067 141.27832166 101.33710412 141.27637294 94.18048406 141.2705839 C88.36628071 141.26607469 82.55208912 141.26545129 76.73788452 141.26763153 C75.49857069 141.26809123 75.49857069 141.26809123 74.23422021 141.26856022 C72.55600873 141.26919964 70.87779726 141.26984807 69.1995858 141.2705054 C53.44773142 141.27621413 37.69590028 141.26964231 21.94404972 141.25890467 C8.41613869 141.24996866 -5.11173803 141.25152055 -18.63964844 141.26074219 C-34.33355239 141.27143525 -50.02743595 141.27566475 -65.72134304 141.26951766 C-67.39352353 141.26888053 -69.06570402 141.26825179 -70.73788452 141.26763153 C-71.97213471 141.2671687 -71.97213471 141.2671687 -73.23131925 141.26669653 C-79.04131293 141.26496669 -84.85129372 141.26789089 -90.6612854 141.27259064 C-97.73774724 141.27818879 -104.81416469 141.27670558 -111.89062142 141.26602915 C-115.50398341 141.260758 -119.11727127 141.25874008 -122.73063278 141.26532745 C-126.64036975 141.27234756 -130.54998424 141.26398892 -134.4597168 141.25396729 C-135.61202947 141.25842873 -136.76434214 141.26289017 -137.95157337 141.26748681 C-138.99237395 141.26227132 -140.03317453 141.25705582 -141.10551453 141.25168228 C-142.00892421 141.25135758 -142.91233389 141.25103287 -143.84311962 141.25069833 C-146 141 -146 141 -148 139 C-148.25 136.5 -148.25 136.5 -148 134 C-145.54503574 131.54503574 -144.83581235 131.73533389 -141.45849609 131.68115234 C-140.04725967 131.65134781 -140.04725967 131.65134781 -138.60751343 131.62094116 C-137.58976837 131.60938995 -136.57202332 131.59783875 -135.5234375 131.5859375 C-133.96286118 131.55688828 -133.96286118 131.55688828 -132.37075806 131.5272522 C-129.0389228 131.46734273 -125.70705321 131.42102548 -122.375 131.375 C-120.11977637 131.3368307 -117.86456748 131.2977796 -115.609375 131.2578125 C-110.07304725 131.16163201 -104.53663115 131.07661804 -99 131 C-98.69344482 130.22148682 -98.38688965 129.44297363 -98.07104492 128.64086914 C-95.60485682 122.527455 -93.0710022 116.85728614 -89.3125 111.4375 C-88.88171143 110.8081958 -88.45092285 110.1788916 -88.00708008 109.53051758 C-70.5245385 84.52231549 -45.35843112 71.82911055 -16 66 C-10.90078959 65.10530539 -6.15338689 64.96912151 -1 65 C-1.00222061 64.20042374 -1.00444122 63.40084747 -1.00672913 62.57704163 C-1.02673092 55.05740361 -1.04197355 47.53777841 -1.05181217 40.01812077 C-1.05704026 36.15179882 -1.06413654 32.28549879 -1.07543945 28.41918945 C-1.086271 24.69096599 -1.0922774 20.96276366 -1.09487724 17.23452568 C-1.09673101 15.80910344 -1.10035071 14.38368241 -1.10573006 12.95826912 C-1.11294393 10.96836592 -1.11340808 8.97844166 -1.11352539 6.98852539 C-1.115746 5.85379288 -1.11796661 4.71906036 -1.12025452 3.54994202 C-1 1 -1 1 0 0 Z " fill="#FDFDFD" transform="translate(397,459)"/>
<path d="M0 0 C2.31 0.33 4.62 0.66 7 1 C7 22.12 7 43.24 7 65 C13.93 65.495 13.93 65.495 21 66 C24.53112667 66.61833043 27.91100611 67.26842655 31.375 68.125 C32.26566162 68.34236816 33.15632324 68.55973633 34.07397461 68.78369141 C42.51909779 70.95376066 50.23012557 74.07676658 58 78 C59.04285156 78.52207031 60.08570313 79.04414062 61.16015625 79.58203125 C81.20587214 90.43682602 97.85413182 109.2987579 105 131 C105.87656754 131.01213028 105.87656754 131.01213028 106.77084351 131.02450562 C112.83768975 131.11037564 118.90420259 131.20987075 124.97070312 131.31738281 C127.23659682 131.35573271 129.50255265 131.39057483 131.76855469 131.421875 C135.02040867 131.46739527 138.2718326 131.52541076 141.5234375 131.5859375 C143.05005508 131.60326431 143.05005508 131.60326431 144.60751343 131.62094116 C146.01874985 131.6507457 146.01874985 131.6507457 147.45849609 131.68115234 C148.28900482 131.69447601 149.11951355 131.70779968 149.97518921 131.7215271 C152 132 152 132 154 134 C154.25 136.5 154.25 136.5 154 139 C151.46674616 141.53325384 150.61448437 141.25042108 147.10551453 141.25168228 C146.06471395 141.25689778 145.02391336 141.26211327 143.95157337 141.26748681 C142.7992607 141.26302537 141.64694803 141.25856392 140.4597168 141.25396729 C139.24252048 141.25708727 138.02532415 141.26020725 136.7712431 141.26342177 C133.38187628 141.27004157 129.99272958 141.26762833 126.60337591 141.26144934 C122.9523424 141.2569405 119.3013287 141.26390078 115.65029907 141.26940918 C108.49368067 141.27832166 101.33710412 141.27637294 94.18048406 141.2705839 C88.36628071 141.26607469 82.55208912 141.26545129 76.73788452 141.26763153 C75.49857069 141.26809123 75.49857069 141.26809123 74.23422021 141.26856022 C72.55600873 141.26919964 70.87779726 141.26984807 69.1995858 141.2705054 C53.44773142 141.27621413 37.69590028 141.26964231 21.94404972 141.25890467 C8.41613869 141.24996866 -5.11173803 141.25152055 -18.63964844 141.26074219 C-34.33355239 141.27143525 -50.02743595 141.27566475 -65.72134304 141.26951766 C-67.39352353 141.26888053 -69.06570402 141.26825179 -70.73788452 141.26763153 C-71.97213471 141.2671687 -71.97213471 141.2671687 -73.23131925 141.26669653 C-79.04131293 141.26496669 -84.85129372 141.26789089 -90.6612854 141.27259064 C-97.73774724 141.27818879 -104.81416469 141.27670558 -111.89062142 141.26602915 C-115.50398341 141.260758 -119.11727127 141.25874008 -122.73063278 141.26532745 C-126.64036975 141.27234756 -130.54998424 141.26398892 -134.4597168 141.25396729 C-135.61202947 141.25842873 -136.76434214 141.26289017 -137.95157337 141.26748681 C-138.99237395 141.26227132 -140.03317453 141.25705582 -141.10551453 141.25168228 C-142.00892421 141.25135758 -142.91233389 141.25103287 -143.84311962 141.25069833 C-146 141 -146 141 -148 139 C-148.25 136.5 -148.25 136.5 -148 134 C-145.54503574 131.54503574 -144.83581235 131.73533389 -141.45849609 131.68115234 C-140.04725967 131.65134781 -140.04725967 131.65134781 -138.60751343 131.62094116 C-137.58976837 131.60938995 -136.57202332 131.59783875 -135.5234375 131.5859375 C-133.96286118 131.55688828 -133.96286118 131.55688828 -132.37075806 131.5272522 C-129.0389228 131.46734273 -125.70705321 131.42102548 -122.375 131.375 C-120.11977637 131.3368307 -117.86456748 131.2977796 -115.609375 131.2578125 C-110.07304725 131.16163201 -104.53663115 131.07661804 -99 131 C-98.69344482 130.22148682 -98.38688965 129.44297363 -98.07104492 128.64086914 C-95.60485682 122.527455 -93.0710022 116.85728614 -89.3125 111.4375 C-88.88171143 110.8081958 -88.45092285 110.1788916 -88.00708008 109.53051758 C-70.5245385 84.52231549 -45.35843112 71.82911055 -16 66 C-10.90078959 65.10530539 -6.15338689 64.96912151 -1 65 C-1.00222061 64.20042374 -1.00444122 63.40084747 -1.00672913 62.57704163 C-1.02673092 55.05740361 -1.04197355 47.53777841 -1.05181217 40.01812077 C-1.05704026 36.15179882 -1.06413654 32.28549879 -1.07543945 28.41918945 C-1.086271 24.69096599 -1.0922774 20.96276366 -1.09487724 17.23452568 C-1.09673101 15.80910344 -1.10035071 14.38368241 -1.10573006 12.95826912 C-1.11294393 10.96836592 -1.11340808 8.97844166 -1.11352539 6.98852539 C-1.115746 5.85379288 -1.11796661 4.71906036 -1.12025452 3.54994202 C-1 1 -1 1 0 0 Z M-26 77 C-26.67289063 77.19867676 -27.34578125 77.39735352 -28.0390625 77.60205078 C-43.27410284 82.22450052 -56.09228413 89.2922865 -68 100 C-68.77988281 100.68578125 -69.55976563 101.3715625 -70.36328125 102.078125 C-78.32916013 109.50744209 -84.53832644 119.08049306 -89 129 C-89 129.99 -89 130.98 -89 132 C-28.28 132 32.44 132 95 132 C91.71695573 115.58477866 76.7681076 100.45353305 63.34985352 91.31347656 C37.70245966 74.6318882 3.62443728 68.23830817 -26 77 Z " fill="#414047" transform="translate(397,459)"/>
<path d="M0 0 C0.66 0 1.32 0 2 0 C2.30292969 1.01578125 2.60585938 2.0315625 2.91796875 3.078125 C3.34082371 4.46884798 3.7640196 5.85946734 4.1875 7.25 C4.38408203 7.91257812 4.58066406 8.57515625 4.78320312 9.2578125 C6.06635003 13.44284548 7.5822541 17.45344203 9.30541992 21.47802734 C12.00575869 27.91528388 14.37968031 34.43962424 16.6953125 41.0234375 C17.35346721 42.88055324 18.01162426 44.73766816 18.66989231 46.59474373 C19.35670711 48.53417369 20.04196695 50.47414611 20.72671509 52.41430664 C23.06758453 59.04681918 25.41822809 65.67586806 27.76953125 72.3046875 C27.9989485 72.95180946 28.22836575 73.59893143 28.46473503 74.26566315 C32.59180243 85.9034287 36.80264297 97.50838615 41.15478516 109.06396484 C41.54327637 110.10504395 41.93176758 111.14612305 42.33203125 112.21875 C42.65921143 113.08435547 42.9863916 113.94996094 43.32348633 114.84179688 C44 117 44 117 44 120 C15.62 120 -12.76 120 -42 120 C-41.24995448 115.4997269 -40.43564378 112.0318057 -38.91796875 107.82470703 C-38.48661621 106.62129669 -38.05526367 105.41788635 -37.61083984 104.17800903 C-37.1365413 102.8712231 -36.66209039 101.56449247 -36.1875 100.2578125 C-35.69442167 98.88913218 -35.20175393 97.52030388 -34.70947266 96.15133667 C-33.67351945 93.27374866 -32.63424247 90.39739197 -31.59228516 87.52197266 C-30.28467859 83.91338243 -28.98266581 80.30281059 -27.68288612 76.69139481 C-22.51440157 62.33301976 -17.30768773 47.99156193 -11.88598633 33.72634888 C-9.15045917 26.50672378 -6.66098053 19.22136708 -4.2890625 11.875 C-2.98265906 7.86787832 -1.50286461 3.9373295 0 0 Z " fill="#FCFCFC" transform="translate(310,268)"/>
<path d="M0 0 C0.66 0 1.32 0 2 0 C2.30591064 0.87285645 2.61182129 1.74571289 2.92700195 2.64501953 C10.12338218 23.1582538 17.47060327 43.60632082 25 64 C35.66537457 92.89761194 35.66537457 92.89761194 40.6875 107.1875 C41.02676514 108.14390381 41.36603027 109.10030762 41.71557617 110.08569336 C42.01955322 110.95846924 42.32353027 111.83124512 42.63671875 112.73046875 C42.90186279 113.48739014 43.16700684 114.24431152 43.44018555 115.02416992 C44 117 44 117 44 120 C15.62 120 -12.76 120 -42 120 C-41.15581503 115.77907516 -40.07921682 112.1121551 -38.65625 108.0703125 C-38.41528091 107.38369034 -38.17431183 106.69706818 -37.92604065 105.98963928 C-37.12105383 103.70010614 -36.31074824 101.41249878 -35.5 99.125 C-34.92759936 97.50302999 -34.35525364 95.88104061 -33.78295898 94.2590332 C-28.93594747 80.54708948 -24.00704236 66.86452327 -19.0625 53.1875 C-18.70446289 52.19679504 -18.34642578 51.20609009 -17.97753906 50.18536377 C-14.35234007 40.16093123 -10.69707233 30.15045276 -6.93333435 20.1771698 C-5.22874654 15.64698715 -3.62896871 11.10037488 -2.125 6.5 C-1.71507812 5.2521875 -1.30515625 4.004375 -0.8828125 2.71875 C-0.59148437 1.8215625 -0.30015625 0.924375 0 0 Z " fill="#FCFCFD" transform="translate(488,268)"/>
<path d="M0 0 C29.7 0 59.4 0 90 0 C88.25854245 13.93166039 83.19575034 22.73737352 73 32 C61.47686739 40.70674849 49.07694873 42.51167917 35 41 C23.78641173 38.57195317 14.18952748 31.92317631 7.5625 22.5625 C3.07810596 15.12307174 1.08402159 8.67217268 0 0 Z " fill="#F6F5F6" transform="translate(266,396)"/>
<path d="M0 0 C1.9375 0.6875 1.9375 0.6875 4 2 C5.39902584 6.17691468 4.70555106 8.67440814 3.13671875 12.70703125 C2.66343471 13.95742318 2.19137073 15.20827727 1.72021484 16.45947266 C1.44916931 17.1691217 1.17812378 17.87877075 0.89886475 18.60992432 C-0.89753375 23.38653656 -2.58301173 28.20365232 -4.29296875 33.01171875 C-5.09093159 35.243764 -5.88944704 37.47561177 -6.68847656 39.70727539 C-7.09714966 40.84891144 -7.50582275 41.99054749 -7.92687988 43.16677856 C-8.34288452 44.32861664 -8.75888916 45.49045471 -9.1875 46.6875 C-9.61107788 47.87052704 -10.03465576 49.05355408 -10.47106934 50.27243042 C-15.53818784 64.41827614 -20.63352152 78.550108 -25.89477539 92.625 C-29.40686282 102.03495305 -32.71695483 111.50771722 -36 121 C-27.75 121 -19.5 121 -11 121 C-13 127 -13 127 -14 128 C18.67 128.495 18.67 128.495 52 129 C52 129.33 52 129.66 52 130 C22.3 130 -7.4 130 -38 130 C-35.20718711 139.0766419 -33.14883652 145.48892255 -28 153 C-27.13375 154.3303125 -27.13375 154.3303125 -26.25 155.6875 C-17.70439361 164.47048434 -7.47781466 168.98956629 4.70288086 169.47070312 C17.5628457 169.6303716 27.81079534 166.04994708 38 158 C44.97319618 150.80686999 48.92142969 142.69999476 51 133 C53.49248401 135.92595949 54.81512899 138.11770871 55 142 C53.5625 145.3125 53.5625 145.3125 52 148 C52.66 148.33 53.32 148.66 54 149 C53.67 148.01 53.34 147.02 53 146 C54.32 146.33 55.64 146.66 57 147 C48.25917333 163.11054327 37.37822467 172.34982592 20 178 C5.68632794 181.7505144 -8.46419996 178.69428493 -21.1875 171.8125 C-33.48311336 164.23609072 -41.90702884 152.8706245 -46 139 C-46.47483493 136.00524901 -46.79694605 133.02480369 -47 130 C-47.85464844 129.93941406 -48.70929688 129.87882813 -49.58984375 129.81640625 C-50.69457031 129.73261719 -51.79929687 129.64882813 -52.9375 129.5625 C-54.59072266 129.44068359 -54.59072266 129.44068359 -56.27734375 129.31640625 C-59 129 -59 129 -60 128 C-60.125 125 -60.125 125 -60 122 C-58.12175109 120.12175109 -54.96064724 120.60897603 -52.4375 120.4375 C-51.23996094 120.35371094 -50.04242188 120.26992188 -48.80859375 120.18359375 C-47.88175781 120.12300781 -46.95492188 120.06242187 -46 120 C-43.70556136 113.67325034 -41.4128945 107.3458605 -39.12133789 101.01806641 C-38.34503274 98.87502233 -37.56835313 96.73211386 -36.79125977 94.58935547 C-32.09960997 81.65168382 -27.47325351 68.69463704 -22.94265747 55.69976807 C-19.96971397 47.18526712 -16.97030591 38.68032967 -13.94628906 30.18383789 C-13.13723994 27.90380536 -12.33267213 25.6221785 -11.53222656 23.33911133 C-10.36054018 19.99942748 -9.17411313 16.66531982 -7.984375 13.33203125 C-7.44994781 11.79335136 -7.44994781 11.79335136 -6.90472412 10.22358704 C-6.39839447 8.81897469 -6.39839447 8.81897469 -5.88183594 7.38598633 C-5.44384674 6.14743645 -5.44384674 6.14743645 -4.99700928 4.88386536 C-4 3 -4 3 -1 2 C-0.67 1.34 -0.34 0.68 0 0 Z " fill="#424147" transform="translate(482,267)"/>
<path d="M0 0 C29.7 0 59.4 0 90 0 C87.84697039 11.84166284 84.38955303 21.9960581 75 30 C61.54590924 38.93237394 48.58461422 42.24928625 32.546875 39.3828125 C20.30607972 35.76184426 11.38955441 27.89982811 5 17 C2.07399998 11.16227314 0 6.5901624 0 0 Z " fill="#F8F8F8" transform="translate(444,397)"/>
<path d="M0 0 C4.55555556 0.55555556 4.55555556 0.55555556 6 2 C6.10226588 4.66349315 6.13886243 7.30120599 6.13371277 9.96531677 C6.13597833 10.8100554 6.13824388 11.65479404 6.14057809 12.52513081 C6.14694804 15.37801421 6.14608682 18.23085047 6.14526367 21.08374023 C6.14825329 23.12002627 6.15165536 25.15631173 6.15544128 27.19259644 C6.16430539 32.74001827 6.1666204 38.2874247 6.16725707 43.83485293 C6.16820412 48.45742681 6.17188003 53.07999706 6.17542917 57.70256954 C6.18358283 68.60355408 6.18601256 79.50453035 6.18530273 90.40551758 C6.18470164 101.67026498 6.19525759 112.93496453 6.2110464 124.19969982 C6.22409847 133.85402606 6.22948762 143.50833662 6.22884732 153.16267163 C6.22859165 158.93631453 6.23148062 164.70991495 6.24202538 170.48354912 C6.25166725 175.91138602 6.25181258 181.33913947 6.24450874 186.76697922 C6.24345802 188.76409972 6.24585443 190.7612253 6.2518692 192.75833702 C6.25952358 195.47489113 6.25498823 198.19115232 6.24723816 200.90769958 C6.25238172 201.70661808 6.25752529 202.50553657 6.26282471 203.32866472 C6.2282712 208.7717288 6.2282712 208.7717288 4 211 C-0.55555556 210.44444444 -0.55555556 210.44444444 -2 209 C-2.10226588 206.33650685 -2.13886243 203.69879401 -2.13371277 201.03468323 C-2.1371111 199.76757528 -2.1371111 199.76757528 -2.14057809 198.47486919 C-2.14694804 195.62198579 -2.14608682 192.76914953 -2.14526367 189.91625977 C-2.14825329 187.87997373 -2.15165536 185.84368827 -2.15544128 183.80740356 C-2.16430539 178.25998173 -2.1666204 172.7125753 -2.16725707 167.16514707 C-2.16820412 162.54257319 -2.17188003 157.92000294 -2.17542917 153.29743046 C-2.18358283 142.39644592 -2.18601256 131.49546965 -2.18530273 120.59448242 C-2.18470164 109.32973502 -2.19525759 98.06503547 -2.2110464 86.80030018 C-2.22409847 77.14597394 -2.22948762 67.49166338 -2.22884732 57.83732837 C-2.22859165 52.06368547 -2.23148062 46.29008505 -2.24202538 40.51645088 C-2.25166725 35.08861398 -2.25181258 29.66086053 -2.24450874 24.23302078 C-2.24345802 22.23590028 -2.24585443 20.2387747 -2.2518692 18.24166298 C-2.25952358 15.52510887 -2.25498823 12.80884768 -2.24723816 10.09230042 C-2.25238172 9.29338192 -2.25752529 8.49446343 -2.26282471 7.67133528 C-2.2282712 2.2282712 -2.2282712 2.2282712 0 0 Z " fill="#3E3D40" transform="translate(398,237)"/>
<path d="M0 0 C0.71233953 0.00223072 1.42467905 0.00446144 2.15860462 0.00675976 C3.28588836 0.00441978 3.28588836 0.00441978 4.43594551 0.00203252 C6.97331948 -0.00198032 9.51063442 0.00121325 12.04800892 0.00434887 C13.85931909 0.00299496 15.67062899 0.00121508 17.48193836 -0.00096118 C22.41568006 -0.00553668 27.34940096 -0.00374548 32.28314304 -0.0005821 C37.43433916 0.00194091 42.58553344 -0.00039587 47.73672962 -0.00196826 C56.38899526 -0.00379014 65.04125238 -0.00138319 73.69351673 0.00337231 C83.7119973 0.00881496 93.73045753 0.00705232 103.74893761 0.00154591 C112.3340421 -0.00298473 120.91914045 -0.00363602 129.50424576 -0.00101542 C134.63900492 0.00054762 139.77375451 0.00074036 144.90851307 -0.00255191 C149.73470104 -0.00542991 154.56086266 -0.00345626 159.38704777 0.00234234 C161.16366628 0.00367033 162.94028699 0.00327518 164.71690464 0.00107968 C167.1315838 -0.00163033 169.54617711 0.00174745 171.96085072 0.00675976 C173.02936 0.00341368 173.02936 0.00341368 174.11945534 0 C178.94557781 0.01959354 178.94557781 0.01959354 180.05972767 1.13374341 C180.18472767 4.13374341 180.18472767 4.13374341 180.05972767 7.13374341 C178.38855813 8.80491295 176.35117138 8.25842628 174.11945534 8.26748681 C173.40711581 8.26525609 172.69477629 8.26302537 171.96085072 8.26072705 C170.83356698 8.26306703 170.83356698 8.26306703 169.68350983 8.26545429 C167.14613585 8.26946713 164.60882092 8.26627356 162.07144642 8.26313794 C160.26013625 8.26449185 158.44882635 8.26627173 156.63751698 8.268448 C151.70377527 8.27302349 146.77005438 8.2712323 141.83631229 8.26806891 C136.68511618 8.2655459 131.5339219 8.26788268 126.38272572 8.26945508 C117.73046007 8.27127695 109.07820296 8.26887001 100.42593861 8.2641145 C90.40745803 8.25867185 80.38899781 8.26043449 70.37051773 8.2659409 C61.78541324 8.27047154 53.20031488 8.27112283 44.61520958 8.26850224 C39.48045041 8.26693919 34.34570083 8.26674645 29.21094227 8.27003872 C24.38475429 8.27291672 19.55859268 8.27094307 14.73240757 8.26514447 C12.95578906 8.26381648 11.17916835 8.26421163 9.4025507 8.26640713 C6.98787153 8.26911714 4.57327823 8.26573936 2.15860462 8.26072705 C1.09009533 8.26407313 1.09009533 8.26407313 0 8.26748681 C-4.82612247 8.24789327 -4.82612247 8.24789327 -5.94027233 7.13374341 C-6.06527233 4.13374341 -6.06527233 4.13374341 -5.94027233 1.13374341 C-4.26910279 -0.53742614 -2.23171604 0.00906053 0 0 Z " fill="#3D3B44" transform="translate(312.9402723312378,615.8662565946579)"/>
<path d="M0 0 C4.2833784 2.10680827 7.79195117 4.71873609 11.0625 8.1875 C13.01890579 14.05671738 13.04412863 19.87307131 10.3125 25.4375 C6.68511715 29.45703235 3.51083198 32.59207476 -2.05078125 33.23828125 C-7.58896758 33.42001793 -10.64755155 32.74513006 -15 29 C-19.62041934 23.75519966 -20.36850345 20.6498765 -20.26953125 13.7578125 C-19.80451053 8.99977437 -17.83396212 6.52559681 -14.234375 3.53125 C-9.79023172 0.38185713 -5.47258035 -1.45525545 0 0 Z " fill="#FAFAFB" transform="translate(404,184)"/>
<path d="M0 0 C0.33 0 0.66 0 1 0 C1.33 58.74 1.66 117.48 2 178 C2.66 178 3.32 178 4 178 C4.33 174.7 4.66 171.4 5 168 C5.33 168 5.66 168 6 168 C6.33 170.64 6.66 173.28 7 176 C7.16852247 174.39602723 7.33474886 172.7918131 7.5 171.1875 C7.5928125 170.29417969 7.685625 169.40085937 7.78125 168.48046875 C8.04392401 165.91694901 8.04392401 165.91694901 8 163 C9.4375 160.8125 9.4375 160.8125 12 159 C15.02938171 158.66108466 17.96510538 158.76654657 21 159 C20.67 160.32 20.34 161.64 20 163 C16.535 163.99 16.535 163.99 13 165 C14.65 165 16.3 165 18 165 C17.67 165.66 17.34 166.32 17 167 C18.485 167.99 18.485 167.99 20 169 C18.68 169.33 17.36 169.66 16 170 C15.89042969 170.80824219 15.78085937 171.61648438 15.66796875 172.44921875 C15.50941406 173.51785156 15.35085938 174.58648437 15.1875 175.6875 C15.03667969 176.74324219 14.88585937 177.79898438 14.73046875 178.88671875 C13.96845044 182.13446523 12.94183606 184.30192125 11 187 C8.9375 187.875 8.9375 187.875 7 188 C6.34 187.67 5.68 187.34 5 187 C3.68 187 2.36 187 1 187 C1 192.61 1 198.22 1 204 C0.67 204 0.34 204 0 204 C0 136.68 0 69.36 0 0 Z " fill="#DBDBDD" transform="translate(404,240)"/>
<path d="M0 0 C0.33 0 0.66 0 1 0 C1 67.32 1 134.64 1 204 C0.67 204 0.34 204 0 204 C0 199.38 0 194.76 0 190 C-1.65 189.67 -3.3 189.34 -5 189 C-6.51421001 187.48578999 -6.21309856 186.07527232 -6.31640625 183.96484375 C-6.35830078 183.15595703 -6.40019531 182.34707031 -6.44335938 181.51367188 C-6.50233398 180.2384668 -6.50233398 180.2384668 -6.5625 178.9375 C-6.60568359 178.08349609 -6.64886719 177.22949219 -6.69335938 176.34960938 C-6.79976702 174.23327963 -6.90041731 172.11666187 -7 170 C-8.32 170 -9.64 170 -11 170 C-11.04898437 171.13179687 -11.09796875 172.26359375 -11.1484375 173.4296875 C-11.22346514 174.91148339 -11.29901297 176.393253 -11.375 177.875 C-11.4059375 178.62136719 -11.436875 179.36773437 -11.46875 180.13671875 C-11.7734375 185.7734375 -11.7734375 185.7734375 -14 188 C-14.99 188 -15.98 188 -17 188 C-16.01 186.02 -16.01 186.02 -15 184 C-14.67 184 -14.34 184 -14 184 C-13.96241577 183.10692139 -13.96241577 183.10692139 -13.92407227 182.19580078 C-13.80822506 179.50530864 -13.68544804 176.8151766 -13.5625 174.125 C-13.52318359 173.18785156 -13.48386719 172.25070312 -13.44335938 171.28515625 C-13.40146484 170.38925781 -13.35957031 169.49335938 -13.31640625 168.5703125 C-13.27974854 167.74289551 -13.24309082 166.91547852 -13.20532227 166.06298828 C-13 164 -13 164 -12 162 C-7.72412002 161.91615922 -4.23641013 162.15271797 0 163 C0 109.21 0 55.42 0 0 Z " fill="#D1D0D2" transform="translate(395,240)"/>
<path d="M0 0 C4.72774118 0.61548562 7.2931625 2.9660727 10.60546875 6.16796875 C11.73046875 8.35546875 11.73046875 8.35546875 11.73046875 15.35546875 C29.88046875 15.35546875 48.03046875 15.35546875 66.73046875 15.35546875 C67.06046875 14.69546875 67.39046875 14.03546875 67.73046875 13.35546875 C67.73046875 14.34546875 67.73046875 15.33546875 67.73046875 16.35546875 C39.35046875 16.35546875 10.97046875 16.35546875 -18.26953125 16.35546875 C-17.93953125 15.36546875 -17.60953125 14.37546875 -17.26953125 13.35546875 C-17.26953125 14.01546875 -17.26953125 14.67546875 -17.26953125 15.35546875 C-14.95953125 15.35546875 -12.64953125 15.35546875 -10.26953125 15.35546875 C-10.49511719 14.783125 -10.72070312 14.21078125 -10.953125 13.62109375 C-11.26953125 11.35546875 -11.26953125 11.35546875 -10.0546875 9.21484375 C-9.48621094 8.51875 -8.91773438 7.82265625 -8.33203125 7.10546875 C-7.48318359 6.04585938 -7.48318359 6.04585938 -6.6171875 4.96484375 C-6.17246094 4.43375 -5.72773438 3.90265625 -5.26953125 3.35546875 C-6.41421875 4.06703125 -6.41421875 4.06703125 -7.58203125 4.79296875 C-10.26953125 6.35546875 -10.26953125 6.35546875 -13.26953125 7.35546875 C-10.19885192 0.50549178 -7.2867347 -0.20214191 0 0 Z " fill="#E9E9EA" transform="translate(464.26953125,371.64453125)"/>
<path d="M0 0 C0.103125 0.639375 0.20625 1.27875 0.3125 1.9375 C0.539375 2.618125 0.76625 3.29875 1 4 C3.75544358 4.91848119 5.24473058 5.08426974 8.0625 5 C12 5 12 5 14 6 C14 5.34 14 4.68 14 4 C15.65 3.67 17.3 3.34 19 3 C19 5.71286403 18.9065429 8.39600989 18.78125 11.10546875 C18.71357422 12.57983398 18.71357422 12.57983398 18.64453125 14.08398438 C18.57298828 15.62022461 18.57298828 15.62022461 18.5 17.1875 C18.45230469 18.22326172 18.40460938 19.25902344 18.35546875 20.32617188 C18.23758988 22.88414342 18.11907595 25.44208395 18 28 C17.01 28.33 16.02 28.66 15 29 C14.67 29.66 14.34 30.32 14 31 C16.07843011 30.52640788 16.07843011 30.52640788 18 29 C18.70788435 25.66024628 18.70788435 25.66024628 18.75 21.875 C18.80671875 20.59367187 18.8634375 19.31234375 18.921875 17.9921875 C18.94765625 17.00476563 18.9734375 16.01734375 19 15 C19.33 15 19.66 15 20 15 C20.0809723 17.43816585 20.14046972 19.87364384 20.1875 22.3125 C20.21263672 23.00279297 20.23777344 23.69308594 20.26367188 24.40429688 C20.33834499 29.55674183 20.33834499 29.55674183 18.48828125 31.98046875 C17.99714844 32.31691406 17.50601562 32.65335937 17 33 C15.02 32.34 13.04 31.68 11 31 C11 25.39 11 19.78 11 14 C11.66 14 12.32 14 13 14 C12.67 13.01 12.34 12.02 12 11 C11.34 10.67 10.68 10.34 10 10 C10 10.66 10 11.32 10 12 C9.01 12.33 8.02 12.66 7 13 C7 12.01 7 11.02 7 10 C5.3931662 11.14510759 5.3931662 11.14510759 4 13 C3.63729516 15.74243563 3.63729516 15.74243563 3.8125 18.6875 C3.83957031 19.68136719 3.86664063 20.67523438 3.89453125 21.69921875 C3.92933594 22.45847656 3.96414063 23.21773438 4 24 C4.66 23.67 5.32 23.34 6 23 C6 24.65 6 26.3 6 28 C4.02 28.66 2.04 29.32 0 30 C-1 29 -1 29 -1.09765625 26.49609375 C-1.08605469 25.48675781 -1.07445312 24.47742188 -1.0625 23.4375 C-1.05347656 22.42558594 -1.04445313 21.41367187 -1.03515625 20.37109375 C-1.02355469 19.58863281 -1.01195312 18.80617188 -1 18 C-1.99 17.67 -2.98 17.34 -4 17 C-3.79503906 16.35933594 -3.59007812 15.71867187 -3.37890625 15.05859375 C-1.81172636 10.02712149 -0.56957826 5.24011997 0 0 Z " fill="#F6F6F7" transform="translate(364,397)"/>
<path d="M0 0 C0.33 0 0.66 0 1 0 C1.22042969 1.21623047 1.22042969 1.21623047 1.4453125 2.45703125 C2.89975431 9.63729284 4.93976353 15.46119557 8.6953125 21.7578125 C10 24 10 24 11 27 C9.88625 26.938125 8.7725 26.87625 7.625 26.8125 C5.830625 26.9053125 5.830625 26.9053125 4 27 C3.34 27.99 2.68 28.98 2 30 C-0.9375 29.1875 -0.9375 29.1875 -4 28 C-5 25 -5 25 -4 22 C-4.66 22 -5.32 22 -6 22 C-6.33 22.66 -6.66 23.32 -7 24 C-9.1115429 19.7769142 -9.87508795 15.64731172 -9 11 C-7.59492351 8.12620244 -5.90843814 5.56275979 -4 3 C-2.68 3.33 -1.36 3.66 0 4 C0 2.68 0 1.36 0 0 Z " fill="#F4F4F6" transform="translate(257,399)"/>
<path d="M0 0 C6.6 0 13.2 0 20 0 C18 6 18 6 17 7 C49.67 7.495 49.67 7.495 83 8 C83 8.33 83 8.66 83 9 C53.3 9 23.6 9 -7 9 C-7 8.67 -7 8.34 -7 8 C-3.7 8 -0.4 8 3 8 C3 7.34 3 6.68 3 6 C2.34 6 1.68 6 1 6 C0.67 4.02 0.34 2.04 0 0 Z " fill="#858488" transform="translate(451,388)"/>
<path d="M0 0 C1.81242052 -0.02687279 3.62495233 -0.04633715 5.4375 -0.0625 C6.44683594 -0.07410156 7.45617187 -0.08570313 8.49609375 -0.09765625 C11 0 11 0 12 1 C12.061875 2.216875 12.12375 3.43375 12.1875 4.6875 C13.18166247 14.56600328 18.49757461 23.90819795 24 32 C17.39025136 31.70623339 12.82534565 30.82534565 8 26 C7.91273777 24.21928754 7.89300959 22.4351686 7.90234375 20.65234375 C7.90556641 19.57275391 7.90878906 18.49316406 7.91210938 17.38085938 C7.92048828 16.24455078 7.92886719 15.10824219 7.9375 13.9375 C7.94201172 12.79732422 7.94652344 11.65714844 7.95117188 10.48242188 C7.96300253 7.65489649 7.9794859 4.8274736 8 2 C8.66 1.67 9.32 1.34 10 1 C6.7 1 3.4 1 0 1 C0 0.67 0 0.34 0 0 Z " fill="#F1F0F3" transform="translate(424,396)"/>
<path d="M0 0 C2.49248401 2.92595949 3.81512899 5.11770871 4 9 C2.5625 12.3125 2.5625 12.3125 1 15 C1.66 15.33 2.32 15.66 3 16 C2.67 15.01 2.34 14.02 2 13 C3.32 13.33 4.64 13.66 6 14 C-0.15034169 24.55808656 -0.15034169 24.55808656 -4 29 C-8.455 28.01 -8.455 28.01 -13 27 C-11.75741042 23.15926856 -9.92674532 20.68892307 -7.30078125 17.66015625 C-3.18217768 12.40368022 -1.37955856 6.43793997 0 0 Z " fill="#5B5A5E" transform="translate(533,400)"/>
<path d="M0 0 C1.65 0 3.3 0 5 0 C5.33 1.98 5.66 3.96 6 6 C8.31 6 10.62 6 13 6 C14.98 10.95 16.96 15.9 19 21 C18.01 21 17.02 21 16 21 C15.67 22.65 15.34 24.3 15 26 C14.01 26.33 13.02 26.66 12 27 C11.20576139 25.43880578 10.41472877 23.87598036 9.625 22.3125 C9.18414062 21.44238281 8.74328125 20.57226562 8.2890625 19.67578125 C6.26702771 15.47852721 4.79262866 11.85102009 4.375 7.1875 C4.30023438 6.39730469 4.22546875 5.60710937 4.1484375 4.79296875 C4.09945313 4.20128906 4.05046875 3.60960937 4 3 C2.68 2.67 1.36 2.34 0 2 C0 1.34 0 0.68 0 0 Z " fill="#48484D" transform="translate(431,394)"/>
<path d="M0 0 C1.81242052 -0.02687279 3.62495233 -0.04633715 5.4375 -0.0625 C6.44683594 -0.07410156 7.45617187 -0.08570313 8.49609375 -0.09765625 C11 0 11 0 12 1 C12.18382456 2.41223948 12.32234273 3.83051044 12.4375 5.25 C12.70865757 8.06826066 13.00049201 10.00114803 14.125 12.625 C15.3532129 15.95872072 14.6720391 18.5726006 14 22 C12.35 22.66 10.7 23.32 9 24 C8.67 16.74 8.34 9.48 8 2 C8.66 1.67 9.32 1.34 10 1 C6.7 1 3.4 1 0 1 C0 0.67 0 0.34 0 0 Z " fill="#E3E3E6" transform="translate(424,396)"/>
<path d="M0 0 C0.33 0 0.66 0 1 0 C1 7.26 1 14.52 1 22 C-4 21 -4 21 -5 20 C-5.08631874 18.65732587 -5.10706473 17.31025678 -5.09765625 15.96484375 C-5.09443359 15.15595703 -5.09121094 14.34707031 -5.08789062 13.51367188 C-5.07951172 12.66353516 -5.07113281 11.81339844 -5.0625 10.9375 C-5.05798828 10.08349609 -5.05347656 9.22949219 -5.04882812 8.34960938 C-5.03700373 6.23304337 -5.01906769 4.11651315 -5 2 C-3.68 2 -2.36 2 -1 2 C-0.67 1.34 -0.34 0.68 0 0 Z " fill="#F1F0F1" transform="translate(394,408)"/>
<path d="M0 0 C2.49248401 2.92595949 3.81512899 5.11770871 4 9 C2.5625 12.3125 2.5625 12.3125 1 15 C1.66 15.33 2.32 15.66 3 16 C2.67 15.01 2.34 14.02 2 13 C3.32 13.33 4.64 13.66 6 14 C4.75 16 4.75 16 3 18 C1.68 18 0.36 18 -1 18 C-1 17.34 -1 16.68 -1 16 C-2.65 16.66 -4.3 17.32 -6 18 C-4.67616701 13.92666772 -3.23079197 9.9219399 -1.68359375 5.9296875 C-0.99028281 3.97256976 -0.47154484 2.02090645 0 0 Z " fill="#4F4F53" transform="translate(533,400)"/>
<path d="M0 0 C2.31 0 4.62 0 7 0 C7 6.27 7 12.54 7 19 C4.44625103 15.59500137 3.20693538 13.38945961 1.8125 9.5 C1.46832031 8.5615625 1.12414062 7.623125 0.76953125 6.65625 C0 4 0 4 0 0 Z " fill="#F0EFF2" transform="translate(266,397)"/>
<path d="M0 0 C0.33 1.32 0.66 2.64 1 4 C1.66 4 2.32 4 3 4 C2.22818792 8.63087248 2.22818792 8.63087248 0.9375 10.71875 C-0.41644697 14.0133543 0.04907488 16.73000871 0.375 20.25 C0.58125 22.4775 0.7875 24.705 1 27 C1.33 22.38 1.66 17.76 2 13 C2.33 13 2.66 13 3 13 C3.33 16.63 3.66 20.26 4 24 C4.66 23.67 5.32 23.34 6 23 C6 24.65 6 26.3 6 28 C4.02 28.66 2.04 29.32 0 30 C-1 29 -1 29 -1.09765625 26.49609375 C-1.08605469 25.48675781 -1.07445312 24.47742188 -1.0625 23.4375 C-1.05347656 22.42558594 -1.04445313 21.41367187 -1.03515625 20.37109375 C-1.02355469 19.58863281 -1.01195312 18.80617188 -1 18 C-1.99 17.67 -2.98 17.34 -4 17 C-3.79503906 16.35933594 -3.59007812 15.71867187 -3.37890625 15.05859375 C-1.81172636 10.02712149 -0.56957826 5.24011997 0 0 Z " fill="#EDEDEF" transform="translate(364,397)"/>
<path d="M0 0 C2.15016583 2.86688777 3.67007588 5.11050183 5.1875 8.25 C5.53167969 8.95640625 5.87585938 9.6628125 6.23046875 10.390625 C6.48441406 10.92171875 6.73835938 11.4528125 7 12 C6.34 12 5.68 12 5 12 C4.8453125 12.8971875 4.8453125 12.8971875 4.6875 13.8125 C4 16 4 16 1 19 C-0.65 16.69 -2.3 14.38 -4 12 C-3.01 11.67 -2.02 11.34 -1 11 C-0.67 7.37 -0.34 3.74 0 0 Z " fill="#5A595C" transform="translate(268,408)"/>
<path d="M0 0 C0.33 0 0.66 0 1 0 C0.67 4.62 0.34 9.24 0 14 C0.66 14 1.32 14 2 14 C2 9.38 2 4.76 2 0 C2.66 0 3.32 0 4 0 C3.67 5.94 3.34 11.88 3 18 C2.34 18 1.68 18 1 18 C0.67 18.66 0.34 19.32 0 20 C-1.65 18.35 -3.3 16.7 -5 15 C-3.60961435 9.86626838 -1.91539047 4.96260257 0 0 Z " fill="#F0EFF1" transform="translate(283,408)"/>
<path d="M0 0 C0.33 0 0.66 0 1 0 C1.96266298 5.33840379 1.96266298 5.33840379 2 8 C0.625 9.5 0.625 9.5 -1 11 C-1.58408729 13.6739409 -1.77557387 16.26200121 -2 19 C-2.66 18.34 -3.32 17.68 -4 17 C-4.66 17.66 -5.32 18.32 -6 19 C-6.24979445 17.08591243 -6.47408014 15.16848389 -6.6875 13.25 C-6.81511719 12.18265625 -6.94273437 11.1153125 -7.07421875 10.015625 C-6.99001814 6.59442134 -6.30925485 5.44579177 -4 3 C-2.68 3.33 -1.36 3.66 0 4 C0 2.68 0 1.36 0 0 Z " fill="#F1F0F2" transform="translate(257,399)"/>
<path d="M0 0 C0.33 0 0.66 0 1 0 C1.22181406 2.43695715 1.42791119 4.873526 1.625 7.3125 C1.68945312 8.00279297 1.75390625 8.69308594 1.8203125 9.40429688 C2.11802847 13.2559972 2.20763723 14.68854416 0 18 C2.07843011 17.52640788 2.07843011 17.52640788 4 16 C4.70788435 12.66024628 4.70788435 12.66024628 4.75 8.875 C4.80671875 7.59367187 4.8634375 6.31234375 4.921875 4.9921875 C4.94765625 4.00476563 4.9734375 3.01734375 5 2 C5.33 2 5.66 2 6 2 C6.0809723 4.43816585 6.14046972 6.87364384 6.1875 9.3125 C6.22520508 10.34793945 6.22520508 10.34793945 6.26367188 11.40429688 C6.33834499 16.55674183 6.33834499 16.55674183 4.48828125 18.98046875 C3.99714844 19.31691406 3.50601562 19.65335937 3 20 C1.02 19.34 -0.96 18.68 -3 18 C-3 12.39 -3 6.78 -3 1 C-2.67 1 -2.34 1 -2 1 C-1.67 2.98 -1.34 4.96 -1 7 C-0.67 4.69 -0.34 2.38 0 0 Z " fill="#F0F0F1" transform="translate(378,410)"/>
<path d="M0 0 C2.31 0.66 4.62 1.32 7 2 C5.44396229 5.81936528 3.04395069 8.26044438 0 11 C-0.66 11 -1.32 11 -2 11 C-4.3208055 7.7508723 -5.43697042 4.94120709 -6 1 C-5.67 1.66 -5.34 2.32 -5 3 C-4.34 3 -3.68 3 -3 3 C-2.67 2.34 -2.34 1.68 -2 1 C-1.34 1.33 -0.68 1.66 0 2 C0 1.34 0 0.68 0 0 Z " fill="#F3F3F4" transform="translate(338,418)"/>
<path d="M0 0 C1 1 1 1 1.0625 4.0625 C1.041875 5.031875 1.02125 6.00125 1 7 C-2 3.25 -2 3.25 -2 1 C-5.69541586 0.04975021 -8.30458414 0.04975021 -12 1 C-12.66 2.98 -13.32 4.96 -14 7 C-14.99 7 -15.98 7 -17 7 C-17.75 5.3125 -17.75 5.3125 -18 3 C-15.99494392 -0.50884814 -14.35174942 -1.83408046 -10.6875 -3.5625 C-5.68114015 -4.1564749 -4.06832318 -2.84782623 0 0 Z " fill="#EFEFEF" transform="translate(471,380)"/>
<path d="M0 0 C0.66 0 1.32 0 2 0 C2.144375 0.639375 2.28875 1.27875 2.4375 1.9375 C2.81007181 3.97545146 2.81007181 3.97545146 4 5 C4.12537741 7.14307896 4.17574364 9.29078886 4.1875 11.4375 C4.20167969 12.61183594 4.21585937 13.78617187 4.23046875 14.99609375 C4 18 4 18 2 20 C2 19.01 2 18.02 2 17 C1.34 17 0.68 17 0 17 C0 11.39 0 5.78 0 0 Z " fill="#F3F2F3" transform="translate(491,408)"/>
<path d="M0 0 C4.29 0 8.58 0 13 0 C12 4 12 4 9 6 C5.78225805 5.79889113 3.7076656 5.54254362 1.125 3.5625 C0 2 0 2 0 0 Z " fill="#474748" transform="translate(455,388)"/>
<path d="M0 0 C1.8125 1.375 1.8125 1.375 3 3 C3 3.99 3 4.98 3 6 C-1.455 6.495 -1.455 6.495 -6 7 C-6.33 4.69 -6.66 2.38 -7 0 C-4.26634878 -1.36682561 -2.89333621 -0.84683011 0 0 Z " fill="#5B5A5F" transform="translate(265,401)"/>
<path d="M0 0 C0.99 0 1.98 0 3 0 C5.1519437 3.22791555 5.20086443 4.28400809 5 8 C1.71303767 8.79953138 0.28976808 9.09658936 -3 8 C-2.37240135 5.07120629 -1.41377341 2.63904371 0 0 Z " fill="#403F45" transform="translate(273,420)"/>
<path d="M0 0 C1.98 0 3.96 0 6 0 C6.33 2.31 6.66 4.62 7 7 C4.69 7 2.38 7 0 7 C0 4.69 0 2.38 0 0 Z " fill="#525158" transform="translate(268,389)"/>
<path d="M0 0 C1.32 0.33 2.64 0.66 4 1 C5.21621622 6.35135135 5.21621622 6.35135135 4.25 9.25 C3 11 3 11 0 13 C0 8.71 0 4.42 0 0 Z " fill="#EBEBEA" transform="translate(434,407)"/>
<path d="M0 0 C1.65 0 3.3 0 5 0 C5.33 1.98 5.66 3.96 6 6 C8.31 6 10.62 6 13 6 C13 6.66 13 7.32 13 8 C12.05125 8.28875 11.1025 8.5775 10.125 8.875 C6.94788422 9.76825109 6.94788422 9.76825109 5 12 C4.67 9.03 4.34 6.06 4 3 C2.68 2.67 1.36 2.34 0 2 C0 1.34 0 0.68 0 0 Z " fill="#5E5D64" transform="translate(431,394)"/>
<path d="M0 0 C-0.33 1.32 -0.66 2.64 -1 4 C-3.97 4 -6.94 4 -10 4 C-10 3.01 -10 2.02 -10 1 C-6.42181037 -1.33958553 -4.07775191 -0.9267618 0 0 Z " fill="#414046" transform="translate(536,417)"/>
<path d="M0 0 C1.21816406 0.03480469 1.21816406 0.03480469 2.4609375 0.0703125 C3.68683594 0.09738281 3.68683594 0.09738281 4.9375 0.125 C5.87722656 0.15980469 5.87722656 0.15980469 6.8359375 0.1953125 C6.1759375 1.5153125 5.5159375 2.8353125 4.8359375 4.1953125 C1.4609375 4.3203125 1.4609375 4.3203125 -2.1640625 4.1953125 C-2.8240625 3.5353125 -3.4840625 2.8753125 -4.1640625 2.1953125 C-2.1640625 0.1953125 -2.1640625 0.1953125 0 0 Z " fill="#414044" transform="translate(526.1640625,422.8046875)"/>
<path d="M0 0 C2.34770643 3.52155964 2.37669614 5.50771843 2.625 9.6875 C2.69976562 10.86699219 2.77453125 12.04648437 2.8515625 13.26171875 C2.90054687 14.16535156 2.94953125 15.06898438 3 16 C2.01 16.66 1.02 17.32 0 18 C-0.19484938 15.56288386 -0.38115178 13.12562602 -0.5625 10.6875 C-0.64661133 9.65206055 -0.64661133 9.65206055 -0.73242188 8.59570312 C-0.96581505 5.37487726 -1.03224218 3.09672655 0 0 Z " fill="#626265" transform="translate(353,407)"/>
<path d="M0 0 C0.99 0 1.98 0 3 0 C2.125 6.75 2.125 6.75 1 9 C-0.32 8.67 -1.64 8.34 -3 8 C-3 7.01 -3 6.02 -3 5 C-2.34 5 -1.68 5 -1 5 C-0.67 3.35 -0.34 1.7 0 0 Z " fill="#3D3D40" transform="translate(447,415)"/>
<path d="M0 0 C2 1 2 1 2.875 3.3125 C3 6 3 6 1.0625 8.3125 C0.381875 8.869375 -0.29875 9.42625 -1 10 C-1.66 7.03 -2.32 4.06 -3 1 C-2.34 1 -1.68 1 -1 1 C-0.67 1.33 -0.34 1.66 0 2 C0 1.34 0 0.68 0 0 Z " fill="#EFEEF1" transform="translate(348,408)"/>
<path d="M0 0 C3.16115776 1.36983503 3.9927092 1.9890638 6 5 C5.625 7.1875 5.625 7.1875 5 9 C4.01 8.34 3.02 7.68 2 7 C2 6.34 2 5.68 2 5 C0.68 4.34 -0.64 3.68 -2 3 C-1.34 2.67 -0.68 2.34 0 2 C0 1.34 0 0.68 0 0 Z " fill="#F3F3F4" transform="translate(318,401)"/>
<path d="M0 0 C1.98 0.495 1.98 0.495 4 1 C4.33 2.98 4.66 4.96 5 7 C3.35 7.33 1.7 7.66 0 8 C-1.43088528 5.13822943 -0.59991697 3.06624227 0 0 Z " fill="#F7F7F9" transform="translate(436,413)"/>
<path d="M0 0 C0.33 0 0.66 0 1 0 C1 3.3 1 6.6 1 10 C1.99 10.33 2.98 10.66 4 11 C3.01 11.66 2.02 12.32 1 13 C-1.60598877 9.09101684 -1.70354328 6.66919342 -2 2 C-1.34 1.34 -0.68 0.68 0 0 Z " fill="#68676C" transform="translate(349,416)"/>
<path d="M0 0 C1.98 0 3.96 0 6 0 C6 1.32 6 2.64 6 4 C3.36 4 0.72 4 -2 4 C-1.34 2.68 -0.68 1.36 0 0 Z " fill="#3E3D43" transform="translate(439,402)"/>
<path d="M0 0 C2.46392937 2.89243882 3.90346814 5.13872576 4 9 C2.0625 11.3125 2.0625 11.3125 0 13 C-0.33 12.34 -0.66 11.68 -1 11 C-0.34 11 0.32 11 1 11 C1.33 9.35 1.66 7.7 2 6 C1.01 6 0.02 6 -1 6 C-0.67 4.02 -0.34 2.04 0 0 Z " fill="#636267" transform="translate(533,400)"/>
<path d="M0 0 C0.33 1.32 0.66 2.64 1 4 C1.66 4 2.32 4 3 4 C2.46835452 8.78480933 1.76888381 9.23111619 -2 13 C-1.34 8.71 -0.68 4.42 0 0 Z " fill="#DDDDDF" transform="translate(364,397)"/>
<path d="M0 0 C0.66 0.66 1.32 1.32 2 2 C1.96712417 4.72869407 1.43602229 7.2966618 1 10 C0.01 10 -0.98 10 -2 10 C-1.54177532 6.53058454 -1.10868317 3.32604951 0 0 Z " fill="#EFEEF4" transform="translate(449,377)"/>
<path d="M0 0 C0.33 0 0.66 0 1 0 C1.4375 2.1875 1.4375 2.1875 1 5 C-1.13995327 6.98441782 -3.50175965 8.5023304 -6 10 C-6.66 9.67 -7.32 9.34 -8 9 C-6.69088122 7.49704815 -5.37761608 5.99770689 -4.0625 4.5 C-3.33160156 3.6646875 -2.60070312 2.829375 -1.84765625 1.96875 C-1.23792969 1.3190625 -0.62820313 0.669375 0 0 Z " fill="#E8E8EC" transform="translate(355,423)"/>
<path d="M0 0 C0.99 1.32 1.98 2.64 3 4 C2.01 4.33 1.02 4.66 0 5 C-0.33 6.65 -0.66 8.3 -1 10 C-1.99 10.33 -2.98 10.66 -4 11 C-4.33 10.34 -4.66 9.68 -5 9 C-4.34 8.67 -3.68 8.34 -3 8 C-2.09656316 6.11736119 -2.09656316 6.11736119 -1.375 3.9375 C-1.11460937 3.20402344 -0.85421875 2.47054688 -0.5859375 1.71484375 C-0.39257812 1.14894531 -0.19921875 0.58304687 0 0 Z " fill="#5F5E63" transform="translate(447,410)"/>
<path d="M0 0 C0.66 0.33 1.32 0.66 2 1 C1.125 6.75 1.125 6.75 0 9 C-0.66 9 -1.32 9 -2 9 C-2.33 9.66 -2.66 10.32 -3 11 C-3.33 10.01 -3.66 9.02 -4 8 C-3.34 8 -2.68 8 -2 8 C-1.34 5.36 -0.68 2.72 0 0 Z " fill="#636367" transform="translate(450,416)"/>
<path d="M0 0 C0.33 0.66 0.66 1.32 1 2 C3.64 2 6.28 2 9 2 C9 2.66 9 3.32 9 4 C7.54207116 4.05399736 6.08357288 4.09279177 4.625 4.125 C3.81289063 4.14820313 3.00078125 4.17140625 2.1640625 4.1953125 C0 4 0 4 -2 2 C-1.34 1.34 -0.68 0.68 0 0 Z " fill="#616065" transform="translate(525,419)"/>
<path d="M0 0 C1.8871875 0.061875 1.8871875 0.061875 3.8125 0.125 C3.8125 0.455 3.8125 0.785 3.8125 1.125 C2.265625 1.2178125 2.265625 1.2178125 0.6875 1.3125 C-4.07212827 2.31048657 -5.72342963 3.82990867 -9.1875 7.125 C-7.4328046 1.99589037 -5.59164481 -0.18333262 0 0 Z " fill="#F1F1F2" transform="translate(312.1875,401.875)"/>
<path d="M0 0 C0.33 0 0.66 0 1 0 C1 1.98 1 3.96 1 6 C-0.98 6 -2.96 6 -5 6 C-3.35830472 3.97945196 -1.69088222 1.97956942 0 0 Z " fill="#69686D" transform="translate(344,422)"/>
<path d="M0 0 C0.99 0.66 1.98 1.32 3 2 C2.67 3.65 2.34 5.3 2 7 C1.01 6.67 0.02 6.34 -1 6 C-1.33 5.01 -1.66 4.02 -2 3 C-1.34 2.01 -0.68 1.02 0 0 Z " fill="#555559" transform="translate(554,388)"/>
<path d="M0 0 C1.32 0.33 2.64 0.66 4 1 C4 2.98 4 4.96 4 7 C3.01 7.33 2.02 7.66 1 8 C1 7.34 1 6.68 1 6 C1.66 6 2.32 6 3 6 C3 5.01 3 4.02 3 3 C2.01 3.33 1.02 3.66 0 4 C0 2.68 0 1.36 0 0 Z " fill="#4B4A4E" transform="translate(489,616)"/>
<path d="M0 0 C0.99 0 1.98 0 3 0 C2.67 1.65 2.34 3.3 2 5 C0.68 5 -0.64 5 -2 5 C-1.34 3.35 -0.68 1.7 0 0 Z " fill="#414043" transform="translate(268,418)"/>
<path d="M0 0 C0.99 0 1.98 0 3 0 C3 2.31 3 4.62 3 7 C2.01 7 1.02 7 0 7 C0 4.69 0 2.38 0 0 Z " fill="#3B3A3F" transform="translate(350,419)"/>
<path d="M0 0 C0.99 0.33 1.98 0.66 3 1 C2.34 1.66 1.68 2.32 1 3 C0.53709779 5.66242821 0.53709779 5.66242821 0.375 8.625 C0.30023438 9.62789063 0.22546875 10.63078125 0.1484375 11.6640625 C0.09945313 12.43492187 0.05046875 13.20578125 0 14 C-0.33 14 -0.66 14 -1 14 C-1.02685938 11.85423363 -1.04633088 9.70837355 -1.0625 7.5625 C-1.07410156 6.36753906 -1.08570313 5.17257812 -1.09765625 3.94140625 C-1 1 -1 1 0 0 Z " fill="#F0F0F0" transform="translate(289,408)"/>
<path d="M0 0 C0.33 0 0.66 0 1 0 C1 1.65 1 3.3 1 5 C0.34 5 -0.32 5 -1 5 C-1.66 6.32 -2.32 7.64 -3 9 C-3.66 8.01 -4.32 7.02 -5 6 C-4.67 5.01 -4.34 4.02 -4 3 C-2.02 3.495 -2.02 3.495 0 4 C0 2.68 0 1.36 0 0 Z " fill="#E3E2E6" transform="translate(257,399)"/>
<path d="M0 0 C0.66 0.99 1.32 1.98 2 3 C1.06400328 7.16943993 0.62383901 8.58410733 -3 11 C-2.01 7.37 -1.02 3.74 0 0 Z " fill="#58575C" transform="translate(454,336)"/>
<path d="M0 0 C0.66 0.66 1.32 1.32 2 2 C1.34 2 0.68 2 0 2 C-0.103125 2.598125 -0.20625 3.19625 -0.3125 3.8125 C-1.08876455 6.28243264 -2.07088921 7.32251235 -4 9 C-4 4.31908701 -3.00354129 3.37898396 0 0 Z " fill="#626265" transform="translate(273,418)"/>
<path d="M0 0 C0.66 0.33 1.32 0.66 2 1 C2 4 2 4 1 6 C0.34 6 -0.32 6 -1 6 C-1 5.34 -1 4.68 -1 4 C-1.66 4 -2.32 4 -3 4 C-3 3.34 -3 2.68 -3 2 C-2.01 1.34 -1.02 0.68 0 0 Z " fill="#F2F1F3" transform="translate(476,401)"/>
<path d="M0 0 C1.32 0.33 2.64 0.66 4 1 C3.67 2.65 3.34 4.3 3 6 C2.34 6 1.68 6 1 6 C0.67 4.02 0.34 2.04 0 0 Z " fill="#DFDEE3" transform="translate(444,398)"/>
<path d="M0 0 C1.32 0 2.64 0 4 0 C4.33 0.99 4.66 1.98 5 3 C4.01 3 3.02 3 2 3 C2.33 3.99 2.66 4.98 3 6 C2.34 6 1.68 6 1 6 C0.67 4.02 0.34 2.04 0 0 Z " fill="#5A5960" transform="translate(451,388)"/>
<path d="M0 0 C0 3.20395416 -0.74335022 5.09399739 -2 8 C-3.32 7.01 -4.64 6.02 -6 5 C-4.02 3.35 -2.04 1.7 0 0 Z " fill="#4B4A50" transform="translate(333,544)"/>
<path d="M0 0 C0.66 0 1.32 0 2 0 C2 2.31 2 4.62 2 7 C1.34 7 0.68 7 0 7 C-1.125 2.25 -1.125 2.25 0 0 Z " fill="#58585A" transform="translate(402,421)"/>
<path d="M0 0 C0.66 0.33 1.32 0.66 2 1 C0.69593116 3.01920337 -0.63823419 5.01924973 -2 7 C-2.33 7 -2.66 7 -3 7 C-3.1875 4.625 -3.1875 4.625 -3 2 C-2.01 1.34 -1.02 0.68 0 0 Z " fill="#4C4B4E" transform="translate(358,415)"/>
<path d="M0 0 C2.31 0 4.62 0 7 0 C7 0.99 7 1.98 7 3 C4.36 2.67 1.72 2.34 -1 2 C-0.67 1.34 -0.34 0.68 0 0 Z " fill="#FAFAFC" transform="translate(525,403)"/>
<path d="M0 0 C2.475 0.495 2.475 0.495 5 1 C4.67 1.99 4.34 2.98 4 4 C2.68 4 1.36 4 0 4 C0 2.68 0 1.36 0 0 Z " fill="#3F3E43" transform="translate(259,402)"/>
<path d="M0 0 C0.99 0.33 1.98 0.66 3 1 C1.37660195 2.70884005 -0.29319053 4.37446717 -2 6 C-2.66 6 -3.32 6 -4 6 C-2.84826645 3.53199953 -1.95216435 1.95216435 0 0 Z " fill="#F0F0F2" transform="translate(455,373)"/>
<path d="M0 0 C1.9375 0.75 1.9375 0.75 4 2 C4.75 4.125 4.75 4.125 5 6 C3.68 5.67 2.36 5.34 1 5 C0.67 3.35 0.34 1.7 0 0 Z " fill="#3B3A3F" transform="translate(415,182)"/>
</svg>
